<?xml version="1.0" encoding="UTF-8"?>
<svg version="1.1" viewBox="0 0 2048 359" width="2321" height="407" xmlns="http://www.w3.org/2000/svg">
<path transform="translate(0)" d="m0 0h2048v359h-2048z" fill="#FCFCFC"/>
<path transform="translate(197,51)" d="m0 0h97v89h60v-89h97v260h-97v-89h-60v89h-97z" fill="#252527"/>
<path transform="translate(783,51)" d="m0 0h65l7 15 13 31 42 98v3h2l3-9 15-35 13-30 24-56 7-17h65v260h-53l-1-165-16 34-15 33-14 30-13 28h-32l-36-78-13-28-9-20-1 166h-53z" fill="#252527"/>
<path transform="translate(1631,51)" d="m0 0h55v260h-55l-1-14-10 8-15 7-16 4h-26l-15-4-12-5-13-9-7-6-9-11-9-15-7-20-2-12-1-20 2-20 6-20 7-14 9-12 12-12 11-7 10-5 13-4 5-1h26l16 4 10 4 12 8 4 3z" fill="#252527"/>
<path transform="translate(1137,118)" d="m0 0h26l16 4 12 5 10 7 4 3v-14h56v188h-56v-14l-8 6-12 7-16 5-6 1h-25l-16-4-10-4-11-7-10-9-7-7-7-10-7-14-5-15-3-19v-20l3-19 7-20 9-15 11-12 10-9 12-7 18-6z" fill="#252527"/>
<path transform="translate(1795,118)" d="m0 0h30l18 4 14 5 15 9 12 11 7 8 9 15 6 16 3 14 1 10v16l-3 19-6 17-8 14-11 13-12 10-14 8-21 7-11 2h-29l-15-3-15-5-16-9-10-9-5-5-7-8-8-14-5-13-4-17-1-11v-10l2-17 5-18 9-17 7-9 8-9 14-10 16-8 18-5z" fill="#252527"/>
<path transform="translate(486,51)" d="m0 0h97v175l-14 25-9 16-15 26-10 18h-49z" fill="#252527"/>
<path transform="translate(1387,118)" d="m0 0h25l12 3 14 7 10 9 7 9 5 11 4 14 1 7v133h-55l-1-116-2-12-5-10-5-4-11-4h-9l-11 3-9 7-5 10-2 9-1 117h-55v-188h53v18l11-9 10-7 11-5z" fill="#252527"/>
<path transform="translate(583,225)" d="m0 0h117l1 1v85l-1 1h-165l1-5 9-16 15-26 15-27z" fill="#01B6ED"/>
<path transform="translate(1808,161)" d="m0 0 16 2 12 6 8 8 6 11 3 11 1 7v23l-4 17-6 11-8 8-12 6-4 1h-21l-11-4-8-6-6-7-6-13-2-8-1-9v-16l2-14 6-15 9-10 10-6 7-2z" fill="#FBFCFC"/>
<path transform="translate(1154,164)" d="m0 0h14l13 4 11 7 8 9 6 12 3 10v22l-5 15-7 11-9 8-12 6-8 2h-14l-13-4-9-6-8-8-7-14-3-14v-14l3-14 7-14 10-10 12-6z" fill="#FBFCFC"/>
<path transform="translate(1578,165)" d="m0 0h17l10 3 10 6 6 5 7 10 4 8 3 14v13l-3 14-5 10-8 10-10 7-10 4-4 1h-17l-12-4-11-8-7-9-5-10-3-15v-13l3-15 7-13 7-8 11-7z" fill="#FAFCFC"/>
</svg>
